<svg width="54" height="54" viewBox="0 0 54 54" fill="none" xmlns="http://www.w3.org/2000/svg">
<g id="ri:24-hours-line">
<path id="Vector" d="M22.5 29.2568C23.8462 29.2567 25.1616 29.6592 26.2774 30.4124C27.3931 31.1657 28.2581 32.2354 28.7612 33.484C29.2643 34.7326 29.3826 36.1032 29.1008 37.4196C28.8191 38.7359 28.1502 39.938 27.18 40.8713L22.8825 45.0045H29.25V49.5045H15.75L15.7477 45.6255L24.0592 37.6268C24.3274 37.369 24.5275 37.0487 24.6416 36.6947C24.7557 36.3406 24.7802 35.9638 24.7129 35.5979C24.6457 35.2321 24.4888 34.8886 24.2563 34.5982C24.0238 34.3079 23.7229 34.0797 23.3806 33.9341C23.0382 33.7885 22.6652 33.7301 22.2947 33.764C21.9243 33.798 21.5681 33.9232 21.2579 34.1286C20.9477 34.3339 20.6933 34.613 20.5174 34.9407C20.3415 35.2685 20.2497 35.6348 20.25 36.0068H15.75C15.75 34.2166 16.4612 32.4997 17.727 31.2338C18.9929 29.9679 20.7098 29.2568 22.5 29.2568ZM36 29.2568V38.2568H40.5V29.2568H45V49.5068H40.5V42.7568H31.5V29.2568H36ZM4.5 27.0068C4.49804 29.7057 5.10379 32.3704 6.27231 34.8033C7.44083 37.2362 9.14213 39.3747 11.25 41.0603V46.4963C7.82899 44.5212 4.98827 41.6802 3.01345 38.259C1.03862 34.8378 -0.000689319 30.957 3.43008e-07 27.0068H4.5ZM22.5 4.50677C34.1662 4.50677 43.7603 13.3853 44.8875 24.7568H40.3605C39.9035 21.1286 38.3525 17.7255 35.9137 15.0006C33.4749 12.2757 30.2641 10.3582 26.7086 9.50311C23.1531 8.64807 19.4215 8.89612 16.0104 10.2142C12.5994 11.5324 9.67065 13.858 7.614 16.8818H13.5V21.3818H3.43008e-07V7.88177H4.5V13.5045C6.5946 10.7088 9.31198 8.43979 12.4365 6.87753C15.561 5.31527 19.0067 4.50502 22.5 4.50677Z" fill="#25B4F8"/>
</g>
</svg>
