<svg width="38" height="38" viewBox="0 0 38 38" fill="none" xmlns="http://www.w3.org/2000/svg">
<g id="carbon:checkmark-outline">
<path id="Vector" d="M16.625 25.4291L10.6875 19.4904L12.3654 17.8125L16.625 22.0709L25.6322 13.0625L27.3125 14.7428L16.625 25.4291Z" fill="#1376F8"/>
<path id="Vector_2" d="M19 2.375C15.7119 2.375 12.4976 3.35004 9.76365 5.17682C7.02968 7.0036 4.89882 9.60007 3.64051 12.6379C2.3822 15.6757 2.05297 19.0184 2.69445 22.2434C3.33593 25.4683 4.91931 28.4306 7.24436 30.7556C9.5694 33.0807 12.5317 34.6641 15.7566 35.3056C18.9816 35.947 22.3243 35.6178 25.3621 34.3595C28.3999 33.1012 30.9964 30.9703 32.8232 28.2364C34.65 25.5024 35.625 22.2881 35.625 19C35.625 14.5908 33.8734 10.3621 30.7557 7.24435C27.6379 4.12656 23.4092 2.375 19 2.375ZM19 33.25C16.1816 33.25 13.4265 32.4143 11.0831 30.8484C8.73973 29.2826 6.91327 27.0571 5.83472 24.4532C4.75618 21.8494 4.47398 18.9842 5.02382 16.22C5.57366 13.4557 6.93084 10.9166 8.92374 8.92373C10.9166 6.93083 13.4557 5.57365 16.22 5.02381C18.9842 4.47397 21.8494 4.75617 24.4532 5.83472C27.0571 6.91327 29.2826 8.73972 30.8484 11.0831C32.4143 13.4265 33.25 16.1816 33.25 19C33.25 22.7793 31.7487 26.4039 29.0763 29.0763C26.4039 31.7487 22.7793 33.25 19 33.25Z" fill="#1376F8"/>
</g>
</svg>
