<svg width="47" height="48" viewBox="0 0 47 48" fill="none" xmlns="http://www.w3.org/2000/svg">
<g id="healthicons:doctor-outline" clip-path="url(#clip0_291_1441)">
<path id="Vector" fill-rule="evenodd" clip-rule="evenodd" d="M36.1667 13.6667C36.1667 20.8005 30.3839 26.5833 23.25 26.5833C16.1161 26.5833 10.3333 20.8005 10.3333 13.6667C10.3333 6.53279 16.1161 0.75 23.25 0.75C30.3839 0.75 36.1667 6.53279 36.1667 13.6667ZM33.5833 13.6667C33.5833 16.4072 32.4946 19.0356 30.5568 20.9734C28.6189 22.9113 25.9906 24 23.25 24C20.5094 24 17.8811 22.9113 15.9432 20.9734C14.0054 19.0356 12.9167 16.4072 12.9167 13.6667C12.9167 10.9261 14.0054 8.29777 15.9432 6.3599C17.8811 4.42202 20.5094 3.33333 23.25 3.33333C25.9906 3.33333 28.6189 4.42202 30.5568 6.3599C32.4946 8.29777 33.5833 10.9261 33.5833 13.6667ZM15.3889 30.271L15.4031 30.2995L15.5 30.4893H30.6758C30.9716 29.9287 31.642 29.0349 32.2917 29.1835C33.7512 29.5154 35.2212 29.9778 36.633 30.5475L36.6756 30.5268L36.6898 30.5552L36.7001 30.5746C42.0153 32.7342 46.5 36.3948 46.5 40.2362V47.25H0V40.2362C0 35.3602 7.22817 30.7722 14.2083 29.1835C14.778 29.0543 15.1164 29.726 15.3889 30.271ZM34.4927 32.503C33.9386 32.3088 33.3782 32.1334 32.8122 31.9773L32.2361 33.0727H13.941L13.4062 32.0561L12.9412 32.1956C12.9317 32.28 12.9248 32.3765 12.9205 32.485C12.9037 32.9306 12.9373 33.4589 13.011 33.9962C13.086 34.5567 13.207 35.1101 13.3726 35.6508C14.28 35.7583 15.1202 36.183 15.7448 36.8498C16.3694 37.5167 16.7383 38.3828 16.7864 39.2952C16.8344 40.2077 16.5584 41.1077 16.0073 41.8365C15.4561 42.5652 14.6651 43.0757 13.7741 43.2779C12.883 43.48 11.9492 43.3608 11.1375 42.9413C10.3258 42.5218 9.68847 41.8289 9.33804 40.9851C8.98761 40.1413 8.94663 39.2008 9.22234 38.3296C9.49805 37.4585 10.0727 36.7129 10.8448 36.2243L10.8345 36.1882C10.662 35.5843 10.5338 34.9687 10.4509 34.3462C10.3961 33.9486 10.3599 33.5486 10.3424 33.1476C8.74587 33.8296 7.25658 34.6537 6.00883 35.563C3.52625 37.3765 2.58333 39.0712 2.58333 40.2362V44.6667H43.9167V40.2362C43.9167 39.0699 42.9737 37.3752 40.4912 35.5643C39.4085 34.7862 38.2557 34.1107 37.0476 33.5467C36.9948 34.2467 36.8876 34.9416 36.7272 35.625H37.4583C37.6981 35.6251 37.9332 35.692 38.1371 35.8182C38.3411 35.9443 38.5059 36.1248 38.6131 36.3393L39.9048 38.9226C39.9952 39.1022 40.0417 39.2998 40.0417 39.5V42.0833C40.0417 42.4259 39.9056 42.7544 39.6633 42.9967C39.4211 43.2389 39.0926 43.375 38.75 43.375H36.1667V40.7917H37.4583V39.8048L36.6601 38.2083H33.0899L32.2917 39.8048V40.7917H33.5833V43.375H31C30.6574 43.375 30.3289 43.2389 30.0867 42.9967C29.8444 42.7544 29.7083 42.4259 29.7083 42.0833V39.5C29.7083 39.2998 29.7548 39.1022 29.8453 38.9226L31.1369 36.3393C31.2441 36.1248 31.4089 35.9443 31.6129 35.8182C31.8168 35.692 32.0519 35.6251 32.2917 35.625H34.0509L34.0987 35.4648C34.2201 35.0502 34.3286 34.5348 34.4022 33.9975C34.4746 33.4653 34.5082 32.9448 34.4927 32.503ZM14.2083 39.5C14.2083 40.2414 13.6116 40.811 12.9167 40.811C12.2217 40.811 11.625 40.2427 11.625 39.5C11.625 38.7586 12.2217 38.189 12.9167 38.189C13.6116 38.189 14.2083 38.7573 14.2083 39.5Z" fill="#25B4F8"/>
</g>
<defs>
<clipPath id="clip0_291_1441">
<rect width="47" height="48" fill="white"/>
</clipPath>
</defs>
</svg>
