<svg width="31" height="31" viewBox="0 0 31 31" fill="none" xmlns="http://www.w3.org/2000/svg">
<g id="lucide/briefcase-business">
<path id="Vector" d="M15.4997 15.4999H15.5126M20.6663 7.74992V5.16659C20.6663 4.48144 20.3942 3.82436 19.9097 3.33989C19.4252 2.85542 18.7682 2.58325 18.083 2.58325H12.9163C12.2312 2.58325 11.5741 2.85542 11.0896 3.33989C10.6052 3.82436 10.333 4.48144 10.333 5.16659V7.74992M28.4163 16.7916C24.5837 19.3219 20.0923 20.6709 15.4997 20.6709C10.9071 20.6709 6.41565 19.3219 2.58301 16.7916M5.16634 7.74992H25.833C27.2597 7.74992 28.4163 8.90652 28.4163 10.3333V23.2499C28.4163 24.6767 27.2597 25.8333 25.833 25.8333H5.16634C3.73961 25.8333 2.58301 24.6767 2.58301 23.2499V10.3333C2.58301 8.90652 3.73961 7.74992 5.16634 7.74992Z" stroke="#3C4959" stroke-width="2" stroke-linecap="round" stroke-linejoin="round"/>
</g>
</svg>
