<svg width="32" height="32" viewBox="0 0 32 32" fill="none" xmlns="http://www.w3.org/2000/svg">
<g id="facebook">
<path id="facebook_2" fill-rule="evenodd" clip-rule="evenodd" d="M0 16.0002C0 7.16361 7.16344 0.000167847 16 0.000167847C24.8366 0.000167847 32 7.16361 32 16.0002C32 24.8367 24.8366 32.0002 16 32.0002C7.16344 32.0002 0 24.8367 0 16.0002ZM16 8.00017C20.4 8.00017 24 11.6002 24 16.0002C24 20.0002 21.1 23.4002 17.1 24.0002V18.3002H19L19.4 16.0002H17.2V14.5002C17.2 13.9002 17.5 13.3002 18.5 13.3002H19.5V11.3002C19.5 11.3002 18.6 11.1002 17.7 11.1002C15.9 11.1002 14.7 12.2002 14.7 14.2002V16.0002H12.7V18.3002H14.7V23.9002C10.9 23.3002 8 20.0002 8 16.0002C8 11.6002 11.6 8.00017 16 8.00017Z" fill="#011632"/>
</g>
</svg>
