<svg width="70" height="70" viewBox="0 0 70 70" fill="none" xmlns="http://www.w3.org/2000/svg">
<rect width="70" height="70" rx="35" fill="#25B4F8"/>
<path d="M33.4167 19.1666V22.3333M23.9167 19.1666V22.3333M23.9167 20.75H22.3334C21.4936 20.75 20.6881 21.0836 20.0942 21.6775C19.5004 22.2713 19.1667 23.0768 19.1667 23.9166V30.25C19.1667 32.7695 20.1676 35.1859 21.9492 36.9675C23.7308 38.7491 26.1472 39.75 28.6667 39.75M28.6667 39.75C31.1863 39.75 33.6027 38.7491 35.3843 36.9675C37.1659 35.1859 38.1667 32.7695 38.1667 30.25V23.9166C38.1667 23.0768 37.8331 22.2713 37.2393 21.6775C36.6454 21.0836 35.8399 20.75 35.0001 20.75H33.4167M28.6667 39.75C28.6667 42.2695 29.6676 44.6859 31.4492 46.4675C33.2308 48.2491 35.6472 49.25 38.1667 49.25C40.6863 49.25 43.1027 48.2491 44.8843 46.4675C46.6659 44.6859 47.6667 42.2695 47.6667 39.75V35M47.6667 35C49.4157 35 50.8334 33.5822 50.8334 31.8333C50.8334 30.0844 49.4157 28.6666 47.6667 28.6666C45.9178 28.6666 44.5001 30.0844 44.5001 31.8333C44.5001 33.5822 45.9178 35 47.6667 35Z" stroke="white" stroke-width="2.5" stroke-linecap="round" stroke-linejoin="round"/>
</svg>
