<svg width="70" height="70" viewBox="0 0 70 70" fill="none" xmlns="http://www.w3.org/2000/svg">
<rect width="70" height="70" rx="35" fill="#25B4F8"/>
<path d="M21.0984 35H31.0417L31.8334 33.4167L35.0001 40.5417L38.1667 29.4583L40.5417 35H48.8859M46.0834 38.1667C48.4426 35.855 50.8334 33.0842 50.8334 29.4583C50.8334 27.1487 49.9159 24.9337 48.2828 23.3006C46.6497 21.6675 44.4347 20.75 42.1251 20.75C39.3384 20.75 37.3751 21.5417 35.0001 23.9167C32.6251 21.5417 30.6617 20.75 27.8751 20.75C25.5655 20.75 23.3505 21.6675 21.7174 23.3006C20.0842 24.9337 19.1667 27.1487 19.1667 29.4583C19.1667 33.1 21.5417 35.8708 23.9167 38.1667L35.0001 49.25L46.0834 38.1667Z" stroke="white" stroke-width="2.5" stroke-linecap="round" stroke-linejoin="round"/>
</svg>
