<svg width="32" height="32" viewBox="0 0 32 32" fill="none" xmlns="http://www.w3.org/2000/svg">
<g id="instagram">
<g id="instagram_2">
<path d="M16 18.8002C14.5 18.8002 13.2 17.6002 13.2 16.0002C13.2 14.5002 14.4 13.2002 16 13.2002C17.5 13.2002 18.8 14.4002 18.8 16.0002C18.8 17.5002 17.5 18.8002 16 18.8002Z" fill="#011632"/>
<path fill-rule="evenodd" clip-rule="evenodd" d="M19.4 9.20016H12.6C11.8 9.30017 11.4 9.40016 11.1 9.50016C10.7 9.60017 10.4 9.80017 10.1 10.1002C9.86261 10.3376 9.75045 10.5749 9.61489 10.8619C9.57916 10.9375 9.5417 11.0168 9.5 11.1002C9.48453 11.1466 9.46667 11.1954 9.44752 11.2477C9.34291 11.5335 9.2 11.9239 9.2 12.6002V19.4002C9.3 20.2002 9.4 20.6002 9.5 20.9002C9.6 21.3002 9.8 21.6002 10.1 21.9002C10.3374 22.1376 10.5748 22.2497 10.8617 22.3853C10.9374 22.421 11.0165 22.4584 11.1 22.5002C11.1464 22.5156 11.1952 22.5335 11.2475 22.5526C11.5333 22.6573 11.9238 22.8002 12.6 22.8002H19.4C20.2 22.7002 20.6 22.6002 20.9 22.5002C21.3 22.4002 21.6 22.2002 21.9 21.9002C22.1374 21.6628 22.2495 21.4254 22.3851 21.1385C22.4209 21.0628 22.4583 20.9836 22.5 20.9002C22.5155 20.8538 22.5333 20.805 22.5525 20.7526C22.6571 20.4668 22.8 20.0764 22.8 19.4002V12.6002C22.7 11.8002 22.6 11.4002 22.5 11.1002C22.4 10.7002 22.2 10.4002 21.9 10.1002C21.6626 9.86278 21.4252 9.75062 21.1383 9.61505C21.0627 9.57935 20.9833 9.54184 20.9 9.50016C20.8536 9.4847 20.8048 9.46683 20.7525 9.44769C20.4667 9.34307 20.0762 9.20016 19.4 9.20016ZM16 11.7002C13.6 11.7002 11.7 13.6002 11.7 16.0002C11.7 18.4002 13.6 20.3002 16 20.3002C18.4 20.3002 20.3 18.4002 20.3 16.0002C20.3 13.6002 18.4 11.7002 16 11.7002ZM21.4 11.6002C21.4 12.1525 20.9523 12.6002 20.4 12.6002C19.8477 12.6002 19.4 12.1525 19.4 11.6002C19.4 11.0479 19.8477 10.6002 20.4 10.6002C20.9523 10.6002 21.4 11.0479 21.4 11.6002Z" fill="#011632"/>
<path fill-rule="evenodd" clip-rule="evenodd" d="M0 16.0002C0 7.16361 7.16344 0.000167847 16 0.000167847C24.8366 0.000167847 32 7.16361 32 16.0002C32 24.8367 24.8366 32.0002 16 32.0002C7.16344 32.0002 0 24.8367 0 16.0002ZM12.6 7.70016H19.4C20.3 7.80016 20.9 7.90017 21.4 8.10017C22 8.40017 22.4 8.60017 22.9 9.10017C23.4 9.60017 23.7 10.1002 23.9 10.6002C24.1 11.1002 24.3 11.7002 24.3 12.6002V19.4002C24.2 20.3002 24.1 20.9002 23.9 21.4002C23.6 22.0002 23.4 22.4002 22.9 22.9002C22.4 23.4002 21.9 23.7002 21.4 23.9002C20.9 24.1002 20.3 24.3002 19.4 24.3002H12.6C11.7 24.2002 11.1 24.1002 10.6 23.9002C10 23.6002 9.6 23.4002 9.1 22.9002C8.6 22.4002 8.3 21.9002 8.1 21.4002C7.9 20.9002 7.7 20.3002 7.7 19.4002V12.6002C7.8 11.7002 7.9 11.1002 8.1 10.6002C8.4 10.0002 8.6 9.60017 9.1 9.10017C9.6 8.60017 10.1 8.30017 10.6 8.10017C11.1 7.90017 11.7 7.70016 12.6 7.70016Z" fill="#011632"/>
</g>
</g>
</svg>
