<svg width="70" height="70" viewBox="0 0 70 70" fill="none" xmlns="http://www.w3.org/2000/svg">
<rect width="70" height="70" rx="35" fill="#25B4F8"/>
<path d="M25 44H37M20.5 50H47.5M37 50C39.7848 50 42.4555 48.8938 44.4246 46.9246C46.3938 44.9555 47.5 42.2848 47.5 39.5C47.5 36.7152 46.3938 34.0445 44.4246 32.0754C42.4555 30.1062 39.7848 29 37 29H35.5M29.5 38H32.5M34 26V21.5C34 21.1022 33.842 20.7206 33.5607 20.4393C33.2794 20.158 32.8978 20 32.5 20H29.5C29.1022 20 28.7206 20.158 28.4393 20.4393C28.158 20.7206 28 21.1022 28 21.5V26M29.5 35C28.7044 35 27.9413 34.6839 27.3787 34.1213C26.8161 33.5587 26.5 32.7956 26.5 32V26H35.5V32C35.5 32.7956 35.1839 33.5587 34.6213 34.1213C34.0587 34.6839 33.2956 35 32.5 35H29.5Z" stroke="white" stroke-width="2.5" stroke-linecap="round" stroke-linejoin="round"/>
</svg>
