<svg width="32" height="32" viewBox="0 0 32 32" fill="none" xmlns="http://www.w3.org/2000/svg">
<g id="linkedin">
<path id="linkedin_2" fill-rule="evenodd" clip-rule="evenodd" d="M0 16.0002C0 7.16361 7.16344 0.000167847 16 0.000167847C24.8366 0.000167847 32 7.16361 32 16.0002C32 24.8367 24.8366 32.0002 16 32.0002C7.16344 32.0002 0 24.8367 0 16.0002ZM8.2 13.3002V24.0002H11.6V13.3002H8.2ZM8 9.90017C8 11.0002 8.8 11.8002 9.9 11.8002C11 11.8002 11.8 11.0002 11.8 9.90017C11.8 8.80017 11 8.00017 9.9 8.00017C8.9 8.00017 8 8.80017 8 9.90017ZM20.6 24.0002H23.8V17.4002C23.8 14.1002 21.8 13.0002 19.9 13.0002C18.2 13.0002 17 14.1002 16.7 14.8002V13.3002H13.5V24.0002H16.9V18.3002C16.9 16.8002 17.9 16.0002 18.9 16.0002C19.9 16.0002 20.6 16.5002 20.6 18.2002V24.0002Z" fill="#011632"/>
</g>
</svg>
