<svg width="39" height="38" viewBox="0 0 39 38" fill="none" xmlns="http://www.w3.org/2000/svg">
<g id="lucide/phone">
<path id="Vector" d="M35.3333 26.79V31.54C35.3351 31.981 35.2447 32.4174 35.0681 32.8215C34.8914 33.2255 34.6323 33.5882 34.3074 33.8863C33.9825 34.1844 33.5988 34.4113 33.1811 34.5526C32.7634 34.6939 32.3208 34.7463 31.8816 34.7067C27.0094 34.1773 22.3294 32.5124 18.2174 29.8458C14.3918 27.4149 11.1484 24.1714 8.71744 20.3458C6.04157 16.2152 4.37632 11.5124 3.8566 6.61832C3.81703 6.18048 3.86907 5.73919 4.00939 5.32256C4.14972 4.90593 4.37526 4.52308 4.67165 4.19839C4.96804 3.8737 5.32879 3.61428 5.73094 3.43665C6.13308 3.25902 6.56781 3.16707 7.00744 3.16666H11.7574C12.5258 3.15909 13.2708 3.4312 13.8534 3.93225C14.436 4.4333 14.8166 5.12911 14.9241 5.88999C15.1246 7.4101 15.4964 8.90264 16.0324 10.3392C16.2455 10.9059 16.2916 11.5218 16.1653 12.1139C16.039 12.706 15.7456 13.2495 15.3199 13.68L13.3091 15.6908C15.5631 19.6548 18.8452 22.9369 22.8091 25.1908L24.8199 23.18C25.2504 22.7543 25.7939 22.4609 26.386 22.3346C26.9782 22.2084 27.5941 22.2545 28.1608 22.4675C29.5973 23.0035 31.0898 23.3753 32.6099 23.5758C33.3791 23.6843 34.0815 24.0717 34.5836 24.6644C35.0857 25.257 35.3525 26.0135 35.3333 26.79Z" stroke="white" stroke-width="2" stroke-linecap="round" stroke-linejoin="round"/>
</g>
</svg>
