<svg width="39" height="38" viewBox="0 0 39 38" fill="none" xmlns="http://www.w3.org/2000/svg">
<g id="lucide/map-pin">
<g id="Vector">
<path d="M32.1663 15.8334C32.1663 23.739 23.3963 31.9723 20.4513 34.5152C20.1769 34.7215 19.8429 34.833 19.4997 34.833C19.1564 34.833 18.8224 34.7215 18.5481 34.5152C15.6031 31.9723 6.83301 23.739 6.83301 15.8334C6.83301 12.474 8.16753 9.25219 10.543 6.87673C12.9184 4.50127 16.1403 3.16675 19.4997 3.16675C22.8591 3.16675 26.0809 4.50127 28.4564 6.87673C30.8318 9.25219 32.1663 12.474 32.1663 15.8334Z" stroke="white" stroke-width="2" stroke-linecap="round" stroke-linejoin="round"/>
<path d="M19.4997 20.5834C22.123 20.5834 24.2497 18.4568 24.2497 15.8334C24.2497 13.2101 22.123 11.0834 19.4997 11.0834C16.8763 11.0834 14.7497 13.2101 14.7497 15.8334C14.7497 18.4568 16.8763 20.5834 19.4997 20.5834Z" stroke="white" stroke-width="2" stroke-linecap="round" stroke-linejoin="round"/>
</g>
</g>
</svg>
