<svg width="70" height="70" viewBox="0 0 70 70" fill="none" xmlns="http://www.w3.org/2000/svg">
<rect width="70" height="70" rx="35" fill="#25B4F8"/>
<path d="M17.8907 18.5555C17.8752 18.5276 17.8655 18.4969 17.8619 18.4652C17.8584 18.4335 17.8612 18.4014 17.8701 18.3707C17.8791 18.3401 17.894 18.3115 17.914 18.2867C17.9341 18.2618 17.9588 18.2412 17.9869 18.226L19.7503 17.2653C19.7783 17.2499 19.809 17.2402 19.8407 17.2368C19.8725 17.2333 19.9046 17.2362 19.9351 17.2453C19.9657 17.2543 19.9942 17.2694 20.019 17.2895C20.0437 17.3097 20.0642 17.3345 20.0793 17.3627L20.7864 18.6529C23.4601 17.8513 26.4223 18.9913 27.8135 21.5391L24.3964 23.4047C24.6678 23.9024 24.7304 24.4875 24.5704 25.0313C24.4104 25.5752 24.0409 26.0332 23.5432 26.3046C23.0455 26.576 22.4604 26.6385 21.9166 26.4785C21.3727 26.3185 20.9147 25.949 20.6433 25.4513L17.2251 27.3145C15.8328 24.7679 16.4722 21.6602 18.5967 19.8463L17.8907 18.5555ZM41.9655 41.7961H53.4658V53.6842H41.9655V41.7961ZM40.6474 47.7377H31.3593C30.5809 47.7376 29.8344 47.4285 29.2838 46.8783C28.7332 46.3281 28.4234 45.5818 28.4226 44.8034C28.4231 44.025 28.7328 43.2786 29.2835 42.7285C29.8342 42.1783 30.5809 41.8694 31.3593 41.8697H40.6474V47.7377ZM20.622 50.1181C20.622 49.462 21.1534 48.9294 21.8101 48.9294H40.6468V53.683H20.622V50.1175V50.1181ZM27.7648 44.1954C27.7645 44.661 27.6724 45.1219 27.494 45.5519C27.3155 45.9819 27.0541 46.3725 26.7247 46.7014C26.3952 47.0304 26.0042 47.2912 25.574 47.469C25.1437 47.6468 24.6827 47.7381 24.2171 47.7377C23.7515 47.7382 23.2904 47.647 22.8601 47.4692C22.4298 47.2914 22.0387 47.0306 21.7092 46.7016C21.3797 46.3727 21.1182 45.982 20.9397 45.552C20.7612 45.122 20.6692 44.661 20.6689 44.1954C20.6689 42.2402 22.2571 40.6549 24.2171 40.6549C26.1759 40.6549 27.7648 42.2402 27.7648 44.1954ZM47.1566 34.2757L45.1611 28.5941C44.7739 27.5229 44.0306 26.6869 41.9322 26.6869H32.7196C30.6219 26.6869 29.8773 27.5229 29.492 28.5941L27.497 34.2757C27.348 34.6426 27.2708 35.4673 28.0824 36.0195L32.7736 39.1106C33.1026 39.3275 33.5042 39.4051 33.8903 39.3264C34.2764 39.2477 34.6155 39.0191 34.8334 38.6908C34.9408 38.5278 35.0151 38.3452 35.052 38.1535C35.0889 37.9618 35.0876 37.7647 35.0483 37.5735C35.009 37.3823 34.9324 37.2007 34.8229 37.0391C34.7133 36.8775 34.5731 36.739 34.41 36.6317L30.6866 34.1777L31.7346 31.2867H33.1851L32.3355 33.632L35.1623 35.4952C35.4752 35.7002 35.7442 35.9652 35.9539 36.275C36.1635 36.5847 36.3096 36.933 36.3836 37.2996C36.4605 37.6661 36.4637 38.0442 36.3932 38.412C36.3227 38.7797 36.1798 39.1298 35.9728 39.4419C35.807 39.6894 35.6034 39.9094 35.3695 40.0938H39.2835C39.05 39.9087 38.8464 39.6888 38.6797 39.4419C38.4728 39.1298 38.3298 38.7797 38.2591 38.412C38.1884 38.0443 38.1913 37.6662 38.2676 37.2996C38.3421 36.9331 38.4884 36.5849 38.6981 36.2752C38.9078 35.9655 39.1768 35.7004 39.4896 35.4952L42.3182 33.632L41.465 31.2867H42.9167L43.967 34.1777L40.2418 36.6317C39.5572 37.0829 39.3661 38.0074 39.8191 38.6908C40.2721 39.3742 41.1948 39.563 41.8794 39.1106L46.57 36.0195C47.3823 35.4667 47.3051 34.6426 47.1566 34.2757ZM38.2427 21.1265C38.1306 21.3698 37.9512 21.576 37.7255 21.7205C37.4999 21.8649 37.2376 21.9417 36.9697 21.9417C36.7014 21.9416 36.4388 21.8648 36.2127 21.7203C35.9866 21.5759 35.8066 21.3698 35.6937 21.1265H33.124C33.0824 21.3521 33.0581 21.5831 33.0581 21.8212C33.0592 22.8614 33.4732 23.8587 34.2092 24.5939C34.9453 25.329 35.9431 25.7418 36.9833 25.7417C37.4985 25.7421 38.0088 25.641 38.4849 25.4442C38.9611 25.2473 39.3938 24.9586 39.7583 24.5946C40.1229 24.2305 40.4122 23.7982 40.6096 23.3223C40.8071 22.8465 40.9089 22.3364 40.9092 21.8212C40.9092 21.5825 40.8837 21.3521 40.8439 21.1265H38.2427ZM35.607 20.2008C35.6838 19.8976 35.8595 19.6286 36.1063 19.4363C36.3531 19.2441 36.6569 19.1395 36.9697 19.1392C37.6264 19.1392 38.1803 19.5928 38.33 20.2008H40.5565C40.2448 19.5147 39.7422 18.9328 39.1087 18.5247C38.4751 18.1166 37.7375 17.8996 36.9839 17.8994C36.2303 17.8996 35.4927 18.1166 34.8592 18.5247C34.2257 18.9328 33.723 19.5147 33.4113 20.2008H35.607Z" fill="white"/>
</svg>
