<svg width="31" height="31" viewBox="0 0 31 31" fill="none" xmlns="http://www.w3.org/2000/svg">
<g id="lucide/thumbs-up">
<path id="Vector" d="M9.04134 12.9166V28.4166M19.3747 7.59492L18.083 12.9166H25.6134C26.0145 12.9166 26.41 13.01 26.7687 13.1893C27.1274 13.3687 27.4395 13.6291 27.6801 13.9499C27.9207 14.2708 28.0833 14.6432 28.1551 15.0378C28.2268 15.4324 28.2057 15.8382 28.0934 16.2233L25.0838 26.5566C24.9273 27.0932 24.601 27.5645 24.1538 27.8999C23.7067 28.2353 23.1628 28.4166 22.6038 28.4166H5.16634C4.4812 28.4166 3.82412 28.1444 3.33965 27.6599C2.85518 27.1755 2.58301 26.5184 2.58301 25.8333V15.4999C2.58301 14.8148 2.85518 14.1577 3.33965 13.6732C3.82412 13.1888 4.4812 12.9166 5.16634 12.9166H8.73134C9.21195 12.9163 9.68296 12.782 10.0914 12.5287C10.4999 12.2754 10.8296 11.9132 11.0434 11.4828L15.4997 2.58325C16.1088 2.59079 16.7083 2.73589 17.2535 3.00769C17.7987 3.27949 18.2754 3.67097 18.648 4.15289C19.0206 4.6348 19.2795 5.19469 19.4053 5.79072C19.5312 6.38675 19.5207 7.00351 19.3747 7.59492Z" stroke="#3C4959" stroke-width="2" stroke-linecap="round" stroke-linejoin="round"/>
</g>
</svg>
