<svg width="32" height="32" viewBox="0 0 32 32" fill="none" xmlns="http://www.w3.org/2000/svg">
<g id="twitter">
<path id="twitter_2" fill-rule="evenodd" clip-rule="evenodd" d="M0 16.0002C0 7.16361 7.16344 0.000167847 16 0.000167847C24.8366 0.000167847 32 7.16361 32 16.0002C32 24.8367 24.8366 32.0002 16 32.0002C7.16344 32.0002 0 24.8367 0 16.0002ZM22.1 11.5002C22.8 11.4002 23.4 11.3002 24 11.0002C23.6 11.7002 23 12.3002 22.3 12.7002C22.5 17.4002 19.1 22.5002 13 22.5002C11.2 22.5002 9.5 21.9002 8 21.0002C9.7 21.2002 11.5 20.7002 12.7 19.8002C11.2 19.8002 10 18.8002 9.6 17.5002C10.1 17.6002 10.6 17.5002 11.1 17.4002C9.6 17.0002 8.5 15.6002 8.5 14.1002C9 14.3002 9.5 14.5002 10 14.5002C8.6 13.5002 8.1 11.6002 9 10.1002C10.7 12.1002 13.1 13.4002 15.8 13.5002C15.3 11.5002 16.9 9.50017 19 9.50017C19.9 9.50017 20.8 9.90017 21.4 10.5002C22.2 10.3002 22.9 10.1002 23.5 9.70017C23.3 10.5002 22.8 11.1002 22.1 11.5002Z" fill="#011632"/>
</g>
</svg>
