<svg width="441" height="10" viewBox="0 0 441 10" fill="none" xmlns="http://www.w3.org/2000/svg">
<path fill-rule="evenodd" clip-rule="evenodd" d="M10.1483 1.67086C19.505 2.24538 44.8659 1.67397 111.618 1.73142C215.854 1.8176 301.819 3.54148 322.842 4.62746C324.667 4.71364 176.515 4.68708 161.51 4.22747C138.118 3.48059 26.4084 4.11257 3.92951 4.97434C-2.46041 5.20415 -0.0641648 6.00848 4.1007 6.18084C10.6047 6.46809 28.7134 5.40883 76.581 5.35138C110.242 5.32265 377.9 6.07537 406.667 8.19165C423.098 8.85235 433.082 9.45559 437.646 9.31196C441.469 9.19706 441.526 8.85235 438.217 7.90439C435.992 7.27242 438.502 6.89898 440.1 6.72663C442.553 6.43937 439.543 5.76506 436.462 4.98946C432.297 3.9266 426.532 3.56461 429.955 4.62746C430.697 4.85727 431.428 5.52014 428.803 5.40523C421.158 5.06052 366.535 3.94364 351.872 3.54148C195.319 -0.824862 43.1249 1.12507 10.7759 0.0622091C-0.691774 -0.339954 4.55718 1.32615 10.1483 1.67086Z" fill="#25B4F8"/>
</svg>
