<svg width="70" height="70" viewBox="0 0 70 70" fill="none" xmlns="http://www.w3.org/2000/svg">
<rect width="70" height="70" rx="35" fill="#25B4F8"/>
<path d="M34.9998 33.4166V39.75M38.1665 36.5833H31.8332M41.3332 25.5V22.3333C41.3332 21.4934 40.9995 20.688 40.4057 20.0941C39.8118 19.5003 39.0064 19.1666 38.1665 19.1666H31.8332C30.9933 19.1666 30.1879 19.5003 29.594 20.0941C29.0001 20.688 28.6665 21.4934 28.6665 22.3333V25.5M44.4998 25.5V47.6666M25.4998 25.5V47.6666M22.3332 25.5H47.6665C49.4154 25.5 50.8332 26.9177 50.8332 28.6666V44.5C50.8332 46.2489 49.4154 47.6666 47.6665 47.6666H22.3332C20.5843 47.6666 19.1665 46.2489 19.1665 44.5V28.6666C19.1665 26.9177 20.5843 25.5 22.3332 25.5Z" stroke="white" stroke-width="2.5" stroke-linecap="round" stroke-linejoin="round"/>
</svg>
